<svg width="59.688" height="45.703" xmlns="http://www.w3.org/2000/svg"><path d="M56.563 20H11.25L25.625 5.625c.625-.677.938-1.458.938-2.344 0-.885-.313-1.666-.938-2.344C24.948.313 24.167 0 23.281 0c-.885 0-1.666.312-2.343.938l-20 20a5.1 5.1 0 0 1-.47.546c-.156.157-.234.313-.234.47A3.147 3.147 0 0 0 0 23.203c0 .468.078.937.234 1.405.157.209.274.391.352.547.078.157.195.313.352.469l20 20c.312.365.65.625 1.015.781.365.157.807.235 1.328.235.469 0 .886-.078 1.25-.235.365-.156.73-.416 1.094-.781.625-.677.938-1.458.938-2.344 0-.885-.313-1.666-.938-2.343L11.25 26.64h45.313c1.041 0 1.861-.3 2.46-.899.6-.599.899-1.42.899-2.46 0-.99-.3-1.785-.899-2.384S57.604 20 56.563 20zm13.359 36.64"/></svg>