<svg width="59.688" height="45.703" xmlns="http://www.w3.org/2000/svg"><path d="M59.688 24.61c.156-.313.234-.704.234-1.172 0-.47-.078-.964-.234-1.485a1.836 1.836 0 0 1-.352-.469 3.722 3.722 0 0 0-.352-.547l-20-20C38.307.313 37.526 0 36.641 0c-.886 0-1.667.312-2.344.938-.625.677-.938 1.458-.938 2.343 0 .886.313 1.667.938 2.344L48.672 20H3.359c-1.041 0-1.862.3-2.46.898-.6.6-.899 1.394-.899 2.383 0 1.042.3 1.862.898 2.461.6.6 1.42.899 2.461.899h45.313L34.297 40.938c-.625.677-.938 1.458-.938 2.343 0 .886.313 1.667.938 2.344.364.365.768.625 1.21.781.444.157.821.235 1.134.235.364 0 .768-.078 1.21-.235.443-.156.82-.416 1.133-.781l20-20 .47-.469a.75.75 0 0 0 .233-.547zM70 56.64" fill="#2b4162"/></svg>