<svg style="" width="44.687500" height="25.703125" version="1.1" xmlns="http://www.w3.org/2000/svg">
<path d="M45.703125 0.937500 C45.026038 0.312497 44.244796 -0.000000 43.359375 -0.000000 C42.473954 -0.000000 41.692712 0.312497 41.015625 0.937500 L23.359375 18.671875 L5.703125 0.937500 C5.026038 0.312497 4.244796 -0.000000 3.359375 -0.000000 C2.473954 -0.000000 1.692712 0.312497 1.015625 0.937500 C0.338538 1.614587 0.000000 2.395829 0.000000 3.281250 C0.000000 4.166671 0.338538 4.947913 1.015625 5.625000 L21.015625 25.625000 C21.380210 25.989585 21.783852 26.249999 22.226562 26.406250 C22.669273 26.562501 23.046873 26.640625 23.359375 26.640625 C23.671877 26.640625 24.049477 26.562501 24.492188 26.406250 C24.934898 26.249999 25.338540 25.989585 25.703125 25.625000 L45.703125 5.625000 C46.380212 4.947913 46.718750 4.166671 46.718750 3.281250 C46.718750 2.395829 46.380212 1.614587 45.703125 0.937500 Z M63.359375 46.640625" style="fill:black"/>
</svg>