<svg style="" width="59.687500" height="45.703125" version="1.1" xmlns="http://www.w3.org/2000/svg">
<path d="M56.562500 20.000000 L11.250000 20.000000 L25.625000 5.625000 C26.250003 4.947913 26.562500 4.166671 26.562500 3.281250 C26.562500 2.395829 26.250003 1.614587 25.625000 0.937500 C24.947913 0.312497 24.166671 -0.000000 23.281250 -0.000000 C22.395829 -0.000000 21.614587 0.312497 20.937500 0.937500 L0.937500 20.937500 C0.781249 21.145834 0.625001 21.328124 0.468750 21.484375 C0.312499 21.640626 0.234375 21.796874 0.234375 21.953125 C0.078124 22.317710 0.000000 22.734373 0.000000 23.203125 C0.000000 23.671877 0.078124 24.140623 0.234375 24.609375 C0.390626 24.817709 0.507812 24.999999 0.585938 25.156250 C0.664063 25.312501 0.781249 25.468749 0.937500 25.625000 L20.937500 45.625000 C21.250002 45.989585 21.588540 46.249999 21.953125 46.406250 C22.317710 46.562501 22.760414 46.640625 23.281250 46.640625 C23.750002 46.640625 24.166665 46.562501 24.531250 46.406250 C24.895835 46.249999 25.260415 45.989585 25.625000 45.625000 C26.250003 44.947913 26.562500 44.166671 26.562500 43.281250 C26.562500 42.395829 26.250003 41.614587 25.625000 40.937500 L11.250000 26.640625 L56.562500 26.640625 C57.604172 26.640625 58.424476 26.341149 59.023438 25.742188 C59.622399 25.143226 59.921875 24.322922 59.921875 23.281250 C59.921875 22.291662 59.622399 21.497399 59.023438 20.898438 C58.424476 20.299476 57.604172 20.000000 56.562500 20.000000 Z M69.921875 56.640625" style="fill:black"/>
</svg>