<svg style="" width="59.687500" height="45.703125" version="1.1" xmlns="http://www.w3.org/2000/svg">
<path d="M59.687500 24.609375 C59.843751 24.296873 59.921875 23.906252 59.921875 23.437500 C59.921875 22.968748 59.843751 22.473961 59.687500 21.953125 C59.531249 21.796874 59.414063 21.640626 59.335938 21.484375 C59.257812 21.328124 59.140626 21.145834 58.984375 20.937500 L38.984375 0.937500 C38.307288 0.312497 37.526046 -0.000000 36.640625 -0.000000 C35.755204 -0.000000 34.973962 0.312497 34.296875 0.937500 C33.671872 1.614587 33.359375 2.395829 33.359375 3.281250 C33.359375 4.166671 33.671872 4.947913 34.296875 5.625000 L48.671875 20.000000 L3.359375 20.000000 C2.317703 20.000000 1.497399 20.299476 0.898438 20.898438 C0.299476 21.497399 0.000000 22.291662 0.000000 23.281250 C0.000000 24.322922 0.299476 25.143226 0.898438 25.742188 C1.497399 26.341149 2.317703 26.640625 3.359375 26.640625 L48.671875 26.640625 L34.296875 40.937500 C33.671872 41.614587 33.359375 42.395829 33.359375 43.281250 C33.359375 44.166671 33.671872 44.947913 34.296875 45.625000 C34.661460 45.989585 35.065102 46.249999 35.507812 46.406250 C35.950523 46.562501 36.328123 46.640625 36.640625 46.640625 C37.005210 46.640625 37.408852 46.562501 37.851562 46.406250 C38.294273 46.249999 38.671873 45.989585 38.984375 45.625000 L58.984375 25.625000 C59.140626 25.468749 59.296874 25.312501 59.453125 25.156250 C59.609376 24.999999 59.687500 24.817709 59.687500 24.609375 Z M70.000000 56.640625" style="fill:#2b4162"/>
</svg>
